<?xml version="1.0" encoding="UTF-8" standalone="no"?>
<!-- Created with Inkscape (http://www.inkscape.org/) -->

<svg
   xmlns:dc="http://purl.org/dc/elements/1.1/"
   xmlns:cc="http://creativecommons.org/ns#"
   xmlns:rdf="http://www.w3.org/1999/02/22-rdf-syntax-ns#"
   xmlns:svg="http://www.w3.org/2000/svg"
   xmlns="http://www.w3.org/2000/svg"
   xmlns:sodipodi="http://sodipodi.sourceforge.net/DTD/sodipodi-0.dtd"
   xmlns:inkscape="http://www.inkscape.org/namespaces/inkscape"
   width="322.478mm"
   height="282.56235mm"
   viewBox="0 0 322.47799 282.56234"
   version="1.1"
   id="svg6054"
   inkscape:version="0.92.1 r15371"
   sodipodi:docname="fire.svg">
  <defs
     id="defs6048" />
  <sodipodi:namedview
     id="base"
     pagecolor="#ffffff"
     bordercolor="#666666"
     borderopacity="1.0"
     inkscape:pageopacity="0.0"
     inkscape:pageshadow="2"
     inkscape:zoom="0.35"
     inkscape:cx="942.94762"
     inkscape:cy="206.34609"
     inkscape:document-units="mm"
     inkscape:current-layer="layer1"
     showgrid="false"
     fit-margin-top="0"
     fit-margin-left="0"
     fit-margin-right="0"
     fit-margin-bottom="0"
     inkscape:window-width="1366"
     inkscape:window-height="719"
     inkscape:window-x="0"
     inkscape:window-y="0"
     inkscape:window-maximized="1" />
  <metadata
     id="metadata6051">
    <rdf:RDF>
      <cc:Work
         rdf:about="">
        <dc:format>image/svg+xml</dc:format>
        <dc:type
           rdf:resource="http://purl.org/dc/dcmitype/StillImage" />
        <dc:title></dc:title>
      </cc:Work>
    </rdf:RDF>
  </metadata>
  <g
     inkscape:label="Layer 1"
     inkscape:groupmode="layer"
     id="layer1"
     transform="translate(263.85132,79.133276)">
    <path
       d="m -23.279571,135.22155 c -0.584576,0.39969 -1.381024,0.24618 -1.777464,-0.33929 L -70.676818,67.646802 c -0.396569,-0.585937 -0.24664,-1.380896 0.339307,-1.777467 0.584575,-0.399689 1.380895,-0.24664 1.777464,0.339297 l 45.620245,67.235328 c 0.399217,0.5847 0.24618,1.38103 -0.339769,1.77759"
       style="fill:#65ccd0;fill-opacity:1;fill-rule:nonzero;stroke:none;stroke-width:0.04809525"
       id="path16"
       inkscape:connector-curvature="0" />
    <path
       d="m -127.27658,162.44686 c 0.0954,0.70215 -0.41594,1.34156 -1.10983,1.42717 -0.6995,0.0906 -1.33829,-0.40586 -1.42582,-1.10671 l -10.5964,-84.046559 c -0.0626,-0.491667 0.16736,-0.957462 0.55283,-1.218249 0.16293,-0.110938 0.35107,-0.184859 0.557,-0.208916 0.69949,-0.09062 1.34154,0.404972 1.43042,1.108939 l 10.5918,84.044335"
       style="fill:#65ccd0;fill-opacity:1;fill-rule:nonzero;stroke:none;stroke-width:0.04809525"
       id="path18"
       inkscape:connector-curvature="0" />
    <path
       d="m -219.61573,202.24976 c -0.0596,0.70463 -0.67207,1.23277 -1.37618,1.17499 -0.70642,-0.0571 -1.23116,-0.67352 -1.1757,-1.37697 l 7.26764,-91.92231 c 0.0257,-0.30753 0.15746,-0.58547 0.35774,-0.79055 0.25743,-0.26182 0.62388,-0.41455 1.01797,-0.38433 0.70642,0.0571 1.2307,0.67364 1.1757,1.37698 l -7.26718,91.92217"
       style="fill:#65ccd0;fill-opacity:1;fill-rule:nonzero;stroke:none;stroke-width:0.04809525"
       id="path20"
       inkscape:connector-curvature="0" />
    <path
       d="m 55.026303,-43.195654 -76.370601,5.384368 c -0.691287,0.04446 -1.315771,-0.48145 -1.366691,-1.188928 -0.04979,-0.703299 0.479713,-1.314801 1.188656,-1.367638 l 76.371479,-5.381117 c 0.08345,-0.0051 0.173542,-0.0041 0.257054,0.0093 0.595127,0.07695 1.063631,0.562156 1.10864,1.175961 0.04992,0.703762 -0.478815,1.318044 -1.188538,1.368101"
       style="fill:#65ccd0;fill-opacity:1;fill-rule:nonzero;stroke:none;stroke-width:0.04809525"
       id="path22"
       inkscape:connector-curvature="0" />
    <path
       d="m 43.056866,56.867725 c -0.326269,0.624659 -1.094636,0.877565 -1.724108,0.550137 L -18.745956,26.277806 c -0.629472,-0.327428 -0.868013,-1.099789 -0.547248,-1.726419 0.105014,-0.197702 0.246402,-0.354068 0.41864,-0.47106 0.37398,-0.25362 0.879663,-0.301643 1.306376,-0.07583 l 60.078844,31.140527 c 0.623928,0.325465 0.86801,1.099779 0.54622,1.722701"
       style="fill:#65ccd0;fill-opacity:1;fill-rule:nonzero;stroke:none;stroke-width:0.04809525"
       id="path24"
       inkscape:connector-curvature="0" />
    <path
       d="m 38.396472,-10.094748 -5.173873,0.5081171 -2.518977,4.5509018 -2.081139,-4.7648229 -5.103022,-0.98603 3.886287,-3.449968 -0.639478,-5.163499 4.485321,2.631903 4.710237,-2.202766 -1.115838,5.077553 3.550482,3.798611"
       style="fill:#e3e324;fill-opacity:1;fill-rule:nonzero;stroke:none;stroke-width:0.04809525"
       id="path26"
       inkscape:connector-curvature="0" />
    <path
       d="m -74.749517,116.31915 -6.450115,3.63602 -0.659389,7.37049 -5.451161,-5.00754 -7.216497,1.64784 3.080495,-6.73014 -3.799423,-6.35353 7.35298,0.84686 4.871104,-5.57461 1.461451,7.25706 6.810555,2.90755"
       style="fill:#ffffff;fill-opacity:1;fill-rule:nonzero;stroke:none;stroke-width:0.04809525"
       id="path28"
       inkscape:connector-curvature="0" />
    <path
       d="m -243.35616,118.00918 -6.44873,3.63563 -0.6611,7.37147 -5.45036,-5.00825 -7.21684,1.64842 3.08096,-6.73027 -3.79909,-6.35411 7.35447,0.85043 4.86869,-5.57792 1.46422,7.25628 6.80778,2.90832"
       style="fill:#e3e324;fill-opacity:1;fill-rule:nonzero;stroke:none;stroke-width:0.04809525"
       id="path30"
       inkscape:connector-curvature="0" />
    <path
       d="m -244.57675,151.16421 c 1.07706,1.58689 0.66259,3.74394 -0.92366,4.82331 -1.58728,1.07567 -3.74638,0.66276 -4.82357,-0.92458 -1.0766,-1.58702 -0.66315,-3.74777 0.92412,-4.82344 1.58681,-1.07555 3.74638,-0.66277 4.82311,0.92471"
       style="fill:#f07a25;fill-opacity:1;fill-rule:nonzero;stroke:none;stroke-width:0.04809525"
       id="path32"
       inkscape:connector-curvature="0" />
    <path
       d="m 58.015222,27.57487 c -1.089414,1.582214 -3.250251,1.978675 -4.832679,0.893813 -1.578835,-1.089839 -1.977324,-3.252606 -0.887012,-4.831571 1.085666,-1.577681 3.245589,-1.977375 4.829059,-0.888818 1.577812,1.086139 1.976301,3.248905 0.890632,4.826576"
       style="fill:#ffffff;fill-opacity:1;fill-rule:nonzero;stroke:none;stroke-width:0.04809525"
       id="path34"
       inkscape:connector-curvature="0" />
    <path
       d="m -11.960915,-67.396781 c -1.089258,1.582664 -3.250096,1.979121 -4.828034,0.892523 -1.578836,-1.089843 -1.981971,-3.251324 -0.89153,-4.829824 1.085538,-1.578143 3.250125,-1.97913 4.82896,-0.889287 1.582556,1.085321 1.976427,3.249363 0.890604,4.826588"
       style="fill:#f07a25;fill-opacity:1;fill-rule:nonzero;stroke:none;stroke-width:0.04809525"
       id="path36"
       inkscape:connector-curvature="0" />
    <path
       d="m -26.544921,-8.672905 c -1.08478,1.5809258 -3.245608,1.9773815 -4.823418,0.891246 -1.583471,-1.0885584 -1.98196,-3.251325 -0.896284,-4.829007 1.090302,-1.578961 3.250243,-1.978663 4.833715,-0.890102 1.57781,1.086133 1.976299,3.2489 0.885987,4.827863"
       style="fill:#ee1f4f;fill-opacity:1;fill-rule:nonzero;stroke:none;stroke-width:0.04809525"
       id="path38"
       inkscape:connector-curvature="0" />
    <path
       d="m -25.385506,69.213855 c -1.090312,1.578965 -3.250244,1.978663 -4.832689,0.893816 -1.578837,-1.089849 -1.977326,-3.252616 -0.887012,-4.831572 1.084768,-1.580928 3.245605,-1.97739 4.828171,-0.892068 1.578709,1.089386 1.977198,3.252153 0.89153,4.829824"
       style="fill:#ee1f4f;fill-opacity:1;fill-rule:nonzero;stroke:none;stroke-width:0.04809525"
       id="path40"
       inkscape:connector-curvature="0" />
    <path
       d="m -180.65319,184.87578 c -1.08799,1.57832 -3.24977,1.97853 -4.82851,0.89266 -1.58023,-1.08948 -1.97871,-3.25224 -0.89072,-4.83056 1.08709,-1.58157 3.24977,-1.97853 4.8291,-0.89232 1.57963,1.08912 1.97812,3.25189 0.89013,4.83022"
       style="fill:#ffffff;fill-opacity:1;fill-rule:nonzero;stroke:none;stroke-width:0.04809525"
       id="path42"
       inkscape:connector-curvature="0" />
    <path
       d="m -111.13161,71.502774 c -1.08984,1.578834 -3.24885,1.978276 -4.83093,0.889334 -1.57781,-1.086138 -1.97815,-3.248393 -0.88831,-4.827228 1.08524,-1.581049 3.24839,-1.97815 4.82957,-0.892445 1.5787,1.089377 1.9758,3.252527 0.88967,4.830339"
       style="fill:#e3e324;fill-opacity:1;fill-rule:nonzero;stroke:none;stroke-width:0.04809525"
       id="path44"
       inkscape:connector-curvature="0" />
    <path
       d="m -155.57697,141.82231 c 1.84458,2.71846 1.13638,6.4208 -1.58398,8.26391 -2.71947,1.84635 -6.41982,1.13811 -8.26564,-1.583 -1.84504,-2.71833 -1.13684,-6.42068 1.58398,-8.26391 2.71946,-1.84636 6.41983,-1.13811 8.26564,1.583"
       style="fill:#ee1f4f;fill-opacity:1;fill-rule:nonzero;stroke:none;stroke-width:0.04809525"
       id="path46"
       inkscape:connector-curvature="0" />
    <path
       d="m -42.405082,135.56189 c 1.84733,2.72119 1.135315,6.42059 -1.582755,8.26656 -2.722216,1.84362 -6.42059,1.13532 -8.266562,-1.58275 -1.84733,-2.72119 -1.135324,-6.42059 1.582746,-8.26656 2.720727,-1.84721 6.420599,-1.13533 8.266571,1.58275"
       style="fill:#f07a25;fill-opacity:1;fill-rule:nonzero;stroke:none;stroke-width:0.04809525"
       id="path48"
       inkscape:connector-curvature="0" />
    <path
       d="m 11.835733,76.108912 -6.9165509,-0.253982 -3.681688,5.867952 3.2386101,6.117402 6.9212058,0.252695 3.677042,-5.866667 -3.238619,-6.1174"
       style="fill:#e3e324;fill-opacity:1;fill-rule:nonzero;stroke:none;stroke-width:0.04809525"
       id="path50"
       inkscape:connector-curvature="0" />
    <path
       d="m 49.338036,-74.231034 -4.893596,-4.902242 -6.691227,1.788009 -1.793853,6.685715 4.893468,4.901779 6.686581,-1.786725 1.798627,-6.686536"
       style="fill:#ffffff;fill-opacity:1;fill-rule:nonzero;stroke:none;stroke-width:0.04809525"
       id="path52"
       inkscape:connector-curvature="0" />
    <path
       d="m -180.54803,103.66375 -4.89313,-4.902381 -6.68921,1.787991 -1.79724,6.68615 4.89313,4.90237 6.68921,-1.78799 1.79724,-6.68615"
       style="fill:#ffffff;fill-opacity:1;fill-rule:nonzero;stroke:none;stroke-width:0.04809525"
       id="path54"
       inkscape:connector-curvature="0" />
  </g>
</svg>
