<?xml version="1.0" encoding="UTF-8" standalone="no"?>
<!-- Created with Inkscape (http://www.inkscape.org/) -->

<svg
   xmlns:dc="http://purl.org/dc/elements/1.1/"
   xmlns:cc="http://creativecommons.org/ns#"
   xmlns:rdf="http://www.w3.org/1999/02/22-rdf-syntax-ns#"
   xmlns:svg="http://www.w3.org/2000/svg"
   xmlns="http://www.w3.org/2000/svg"
   xmlns:sodipodi="http://sodipodi.sourceforge.net/DTD/sodipodi-0.dtd"
   xmlns:inkscape="http://www.inkscape.org/namespaces/inkscape"
   width="309.81528mm"
   height="204.44304mm"
   viewBox="0 0 309.81527 204.44303"
   version="1.1"
   id="svg6054"
   inkscape:version="0.92.1 r15371"
   sodipodi:docname="fire_2.svg">
  <defs
     id="defs6048" />
  <sodipodi:namedview
     id="base"
     pagecolor="#ffffff"
     bordercolor="#666666"
     borderopacity="1.0"
     inkscape:pageopacity="0.0"
     inkscape:pageshadow="2"
     inkscape:zoom="0.35"
     inkscape:cx="978.18363"
     inkscape:cy="-118.42179"
     inkscape:document-units="mm"
     inkscape:current-layer="layer1"
     showgrid="false"
     fit-margin-top="0"
     fit-margin-left="0"
     fit-margin-right="0"
     fit-margin-bottom="0"
     inkscape:window-width="1366"
     inkscape:window-height="719"
     inkscape:window-x="0"
     inkscape:window-y="0"
     inkscape:window-maximized="1" />
  <metadata
     id="metadata6051">
    <rdf:RDF>
      <cc:Work
         rdf:about="">
        <dc:format>image/svg+xml</dc:format>
        <dc:type
           rdf:resource="http://purl.org/dc/dcmitype/StillImage" />
        <dc:title></dc:title>
      </cc:Work>
    </rdf:RDF>
  </metadata>
  <g
     inkscape:label="Layer 1"
     inkscape:groupmode="layer"
     id="layer1"
     transform="translate(273.17418,86.942142)">
    <path
       d="m -49.107417,-31.503965 c 0.520178,0.480516 0.548466,1.29113 0.06635,1.80834 l -55.345373,59.486647 c -0.48254,0.51744 -1.2909,0.548885 -1.80834,0.06633 -0.52018,-0.480515 -0.54889,-1.290901 -0.0663,-1.808341 l 55.345142,-59.487069 c 0.480743,-0.519744 1.291136,-0.548467 1.808569,-0.06591"
       style="fill:#65ccd0;fill-opacity:1;fill-rule:nonzero;stroke:none;stroke-width:0.04809525"
       id="path16"
       inkscape:connector-curvature="0" />
    <path
       d="m 0.66175477,63.783101 c 0.66309473,-0.249843 1.40057443,0.105738 1.63902893,0.762968 0.2445716,0.661584 -0.096643,1.395136 -0.760229,1.637016 L -78.014953,95.286846 c -0.465258,0.170852 -0.970653,0.05076 -1.31096,-0.266715 -0.144531,-0.13403 -0.258613,-0.300902 -0.328064,-0.496254 -0.244589,-0.66157 0.09505,-1.398105 0.761374,-1.641998 L 0.66176451,63.783098"
       style="fill:#65ccd0;fill-opacity:1;fill-rule:nonzero;stroke:none;stroke-width:0.04809525"
       id="path18"
       inkscape:connector-curvature="0" />
    <path
       d="m -240.50861,-67.974411 22.30872,73.2378421 c 0.19776,0.6638857 -0.17536,1.3900714 -0.85358,1.5977479 -0.67441,0.2056416 -1.38874,-0.1738771 -1.59861,-0.8531013 l -22.30574,-73.2394247 c -0.0236,-0.0802 -0.0428,-0.16824 -0.0484,-0.252635 -0.0579,-0.597278 0.31035,-1.162332 0.89859,-1.343322 0.67482,-0.205871 1.39169,0.172278 1.59903,0.852883"
       style="fill:#65ccd0;fill-opacity:1;fill-rule:nonzero;stroke:none;stroke-width:0.04809525"
       id="path22"
       inkscape:connector-curvature="0" />
    <path
       d="m -140.30006,-78.660586 c 0.68176,0.178482 1.09992,0.870935 0.92138,1.557644 l -16.93215,65.516846 c -0.17853,0.686709 -0.87809,1.09176 -1.56054,0.919083 -0.21616,-0.05819 -0.40016,-0.16108 -0.55268,-0.30283 -0.33075,-0.307873 -0.49052,-0.79005 -0.36574,-1.256423 l 16.93258,-65.517079 c 0.17786,-0.680866 0.87808,-1.091754 1.55715,-0.91725"
       style="fill:#65ccd0;fill-opacity:1;fill-rule:nonzero;stroke:none;stroke-width:0.04809525"
       id="path24"
       inkscape:connector-curvature="0" />
    <path
       d="m -204.52925,-59.159233 1.65106,4.929617 4.99862,1.438696 -4.17951,3.092959 0.17885,5.194334 -4.23094,-3.01739 -4.89016,1.776791 1.56342,-4.959914 -3.19932,-4.09913 5.1985,-0.04663 2.90948,-4.30933"
       style="fill:#e3e324;fill-opacity:1;fill-rule:nonzero;stroke:none;stroke-width:0.04809525"
       id="path26"
       inkscape:connector-curvature="0" />
    <path
       d="m -56.034279,22.887897 4.985024,5.474865 7.331533,-1.003766 -3.663262,6.432039 3.218289,6.66602 -7.248215,-1.499204 -5.344219,5.122722 -0.817121,-7.356344 -6.52189,-3.502697 6.747195,-3.045672 1.312666,-7.287963"
       style="fill:#ffffff;fill-opacity:1;fill-rule:nonzero;stroke:none;stroke-width:0.04809525"
       id="path28"
       inkscape:connector-curvature="0" />
    <path
       d="m -172.1942,-86.697208 c 1.78559,0.708433 2.65474,2.726099 1.95079,4.510885 -0.7096,1.782395 -2.72869,2.653954 -4.51132,1.94392 -1.78034,-0.705793 -2.65244,-2.721845 -1.94512,-4.508472 0.70622,-1.780572 2.72532,-2.652131 4.50565,-1.946333"
       style="fill:#ffffff;fill-opacity:1;fill-rule:nonzero;stroke:none;stroke-width:0.04809525"
       id="path34"
       inkscape:connector-curvature="0" />
    <path
       d="m -249.13389,2.7262703 c 1.786,0.7081806 2.65514,2.7258481 1.9485,4.5066452 -0.70961,1.7823973 -2.72641,2.6581975 -4.50861,1.9479335 -1.78076,-0.7055646 -2.65516,-2.7258743 -1.94556,-4.5082707 0.70437,-1.7850131 2.72574,-2.6523555 4.50567,-1.946308"
       style="fill:#f07a25;fill-opacity:1;fill-rule:nonzero;stroke:none;stroke-width:0.04809525"
       id="path36"
       inkscape:connector-curvature="0" />
    <path
       d="m -188.6361,3.8234143 c 1.78331,0.7042041 2.65245,2.7218621 1.94623,4.5024311 -0.70732,1.7866286 -2.72641,2.6581866 -4.50676,1.9523846 -1.78262,-0.7100252 -2.65473,-2.7260934 -1.94741,-4.5127232 0.70622,-1.7805685 2.72532,-2.6521273 4.50794,-1.9420925"
       style="fill:#ee1f4f;fill-opacity:1;fill-rule:nonzero;stroke:none;stroke-width:0.04809525"
       id="path38"
       inkscape:connector-curvature="0" />
    <path
       d="m -112.9766,-14.705806 c 1.78263,0.710034 2.65473,2.726095 1.9508,4.510894 -0.70961,1.7823994 -2.7287,2.6539583 -4.51132,1.94392 -1.78331,-0.7041919 -2.65246,-2.721857 -1.94809,-4.50688 0.70919,-1.782172 2.72828,-2.653731 4.50861,-1.947934"
       style="fill:#ee1f4f;fill-opacity:1;fill-rule:nonzero;stroke:none;stroke-width:0.04809525"
       id="path40"
       inkscape:connector-curvature="0" />
    <path
       d="m 34.447666,110.80045 c 1.781481,0.70792 2.654496,2.72566 1.948742,4.50708 -0.708941,1.78367 -2.72803,2.65522 -4.509511,1.94731 -1.784447,-0.70631 -2.654496,-2.72567 -1.948541,-4.50773 0.708723,-1.78301 2.72782,-2.65457 4.50931,-1.94666"
       style="fill:#ffffff;fill-opacity:1;fill-rule:nonzero;stroke:none;stroke-width:0.04809525"
       id="path42"
       inkscape:connector-curvature="0" />
    <path
       d="m -91.590722,68.362104 c 1.782394,0.709604 2.654043,2.724823 1.94604,4.510181 -0.706224,1.780569 -2.724405,2.653818 -4.506801,1.944215 -1.783526,-0.704625 -2.653818,-2.724402 -1.948769,-4.50816 0.709182,-1.782161 2.72896,-2.652451 4.50953,-1.946236"
       style="fill:#e3e324;fill-opacity:1;fill-rule:nonzero;stroke:none;stroke-width:0.04809525"
       id="path44"
       inkscape:connector-curvature="0" />
    <path
       d="m -13.119579,95.97563 c 2.237702,-2.405242 6.0046855,-2.542003 8.4089192,-0.302121 2.407193,2.238291 2.5434711,6.003341 0.303463,8.410391 -2.2374726,2.40566 -6.0044662,2.54242 -8.4089192,0.30212 -2.407201,-2.23828 -2.543473,-6.003357 -0.303463,-8.41039"
       style="fill:#ee1f4f;fill-opacity:1;fill-rule:nonzero;stroke:none;stroke-width:0.04809525"
       id="path46"
       inkscape:connector-curvature="0" />
    <path
       d="m -44.503234,-12.9378 c 2.239749,-2.408532 6.004719,-2.540919 8.411229,-0.303907 2.405145,2.241577 2.540923,6.0047176 0.303912,8.4112294 -2.239748,2.4085325 -6.004717,2.5409275 -8.411226,0.3039161 -2.408312,-2.2393243 -2.540936,-6.0047245 -0.303915,-8.4112385"
       style="fill:#f07a25;fill-opacity:1;fill-rule:nonzero;stroke:none;stroke-width:0.04809525"
       id="path48"
       inkscape:connector-curvature="0" />
    <path
       d="m -114.57063,-52.52672 1.29752,6.798501 6.54212,2.277809 5.23934,-4.523333 -1.29982,-6.802751 -6.53983,-2.273567 -5.23933,4.523341"
       style="fill:#e3e324;fill-opacity:1;fill-rule:nonzero;stroke:none;stroke-width:0.04809525"
       id="path50"
       inkscape:connector-curvature="0" />
    <path
       d="m -269.489,-55.496905 -3.68518,5.865041 3.23758,6.122712 6.91749,0.255001 3.68476,-5.864814 -3.23529,-6.11847 -6.91936,-0.25947"
       style="fill:#ffffff;fill-opacity:1;fill-rule:nonzero;stroke:none;stroke-width:0.04809525"
       id="path52"
       inkscape:connector-curvature="0" />
  </g>
</svg>
