<?xml version="1.0" encoding="UTF-8" standalone="no"?>
<!-- Created with Inkscape (http://www.inkscape.org/) -->

<svg
   xmlns:dc="http://purl.org/dc/elements/1.1/"
   xmlns:cc="http://creativecommons.org/ns#"
   xmlns:rdf="http://www.w3.org/1999/02/22-rdf-syntax-ns#"
   xmlns:svg="http://www.w3.org/2000/svg"
   xmlns="http://www.w3.org/2000/svg"
   xmlns:sodipodi="http://sodipodi.sourceforge.net/DTD/sodipodi-0.dtd"
   xmlns:inkscape="http://www.inkscape.org/namespaces/inkscape"
   width="192.04137mm"
   height="281.90503mm"
   viewBox="0 0 192.04136 281.90502"
   version="1.1"
   id="svg6054"
   inkscape:version="0.92.1 r15371"
   sodipodi:docname="fire_3.svg">
  <defs
     id="defs6048" />
  <sodipodi:namedview
     id="base"
     pagecolor="#ffffff"
     bordercolor="#666666"
     borderopacity="1.0"
     inkscape:pageopacity="0.0"
     inkscape:pageshadow="2"
     inkscape:zoom="0.35"
     inkscape:cx="829.53578"
     inkscape:cy="288.62404"
     inkscape:document-units="mm"
     inkscape:current-layer="layer1"
     showgrid="false"
     fit-margin-top="0"
     fit-margin-left="0"
     fit-margin-right="0"
     fit-margin-bottom="0"
     inkscape:window-width="1366"
     inkscape:window-height="719"
     inkscape:window-x="0"
     inkscape:window-y="0"
     inkscape:window-maximized="1" />
  <metadata
     id="metadata6051">
    <rdf:RDF>
      <cc:Work
         rdf:about="">
        <dc:format>image/svg+xml</dc:format>
        <dc:type
           rdf:resource="http://purl.org/dc/dcmitype/StillImage" />
        <dc:title></dc:title>
      </cc:Work>
    </rdf:RDF>
  </metadata>
  <g
     inkscape:label="Layer 1"
     inkscape:groupmode="layer"
     id="layer1"
     transform="translate(224.52158,117.43319)">
    <path
       d="m -172.66412,67.398659 c -0.0156,-0.70798 0.54789,-1.291373 1.25485,-1.303781 l 81.237391,-1.502551 c 0.707421,-0.01227 1.291519,0.547435 1.303759,1.254869 0.01563,0.707975 -0.547431,1.291516 -1.254885,1.303744 l -81.237525,1.503006 c -0.70783,0.01516 -1.29138,-0.547899 -1.30363,-1.255323"
       style="fill:#65ccd0;fill-opacity:1;fill-rule:nonzero;stroke:none;stroke-width:0.04809525"
       id="path16"
       inkscape:connector-curvature="0" />
    <path
       d="m -148.84132,-18.382756 c -0.64031,-0.303506 -0.89663,-1.081135 -0.58956,-1.709084 0.30607,-0.635471 1.07082,-0.899478 1.70573,-0.590127 l 76.195648,37.017977 c 0.446074,0.21604 0.710719,0.66304 0.718693,1.128376 0.004,0.197071 -0.03684,0.39505 -0.129142,0.580703 -0.306052,0.635478 -1.071861,0.902688 -1.710108,0.592768 l -76.191271,-37.020621"
       style="fill:#65ccd0;fill-opacity:1;fill-rule:nonzero;stroke:none;stroke-width:0.04809525"
       id="path18"
       inkscape:connector-curvature="0" />
    <path
       d="m -118.63988,-93.632741 c -0.55774,-0.434715 -0.66575,-1.236188 -0.23285,-1.794505 0.43358,-0.560614 1.23653,-0.663597 1.79556,-0.233013 l 73.038533,56.284116 c 0.243636,0.189424 0.404482,0.451623 0.466923,0.73139 0.07876,0.358633 0.0066,0.749023 -0.233912,1.062665 -0.433584,0.560614 -1.236376,0.663158 -1.795562,0.233009 l -73.038672,-56.28365"
       style="fill:#65ccd0;fill-opacity:1;fill-rule:nonzero;stroke:none;stroke-width:0.04809525"
       id="path20"
       inkscape:connector-curvature="0" />
    <path
       d="m -125.62467,164.19398 c -0.54874,-0.44217 -0.64661,-1.24508 -0.20238,-1.79839 l 42.286389,-52.83007 c 0.444437,-0.55309 1.2483,-0.63618 1.800095,-0.1991 0.173377,0.14162 0.299057,0.31087 0.380177,0.50261 0.175539,0.41639 0.123811,0.92167 -0.181076,1.296 l -42.286885,52.8301 c -0.44153,0.54795 -1.2483,0.63617 -1.79626,0.19883"
       style="fill:#65ccd0;fill-opacity:1;fill-rule:nonzero;stroke:none;stroke-width:0.04809525"
       id="path24"
       inkscape:connector-curvature="0" />
    <path
       d="m -48.226834,-91.361528 0.475715,-7.387665 -5.814378,-4.579147 7.171875,-1.83115 2.55993,-6.946 3.955816,6.25622 7.397663,0.28711 -4.728477,5.696762 2.014231,7.124618 -6.878453,-2.735773 -6.153922,4.115025"
       style="fill:#e3e324;fill-opacity:1;fill-rule:nonzero;stroke:none;stroke-width:0.04809525"
       id="path30"
       inkscape:connector-curvature="0" />
    <path
       d="m -75.335663,-110.48892 c -1.917553,0.0357 -3.498271,-1.48937 -3.536308,-3.40764 -0.03438,-1.91712 1.490549,-3.50041 3.408552,-3.53603 1.917403,-0.0353 3.501785,1.49099 3.536166,3.4081 0.03452,1.91666 -1.490543,3.50041 -3.40841,3.53557"
       style="fill:#f07a25;fill-opacity:1;fill-rule:nonzero;stroke:none;stroke-width:0.04809525"
       id="path32"
       inkscape:connector-curvature="0" />
    <path
       d="m -222.13179,-16.226837 c 1.8254,-0.598455 3.78454,0.3956 4.38593,2.217506 0.59551,1.823685 -0.3981,3.785596 -2.22224,4.3809226 -1.81968,0.5971217 -3.78005,-0.3938046 -4.38002,-2.2192836 -0.59695,-1.820122 0.39667,-3.782039 2.21633,-4.379145"
       style="fill:#ffffff;fill-opacity:1;fill-rule:nonzero;stroke:none;stroke-width:0.04809525"
       id="path34"
       inkscape:connector-curvature="0" />
    <path
       d="m -126.37547,117.88709 c -0.72738,-1.77563 0.11726,-3.80336 1.89019,-4.53663 1.77516,-0.72753 3.8046,0.11965 4.53197,1.89527 0.73207,1.77205 -0.11576,3.79876 -1.88918,4.53189 -1.7747,0.72767 -3.80414,-0.11951 -4.53298,-1.89053"
       style="fill:#ee1f4f;fill-opacity:1;fill-rule:nonzero;stroke:none;stroke-width:0.04809525"
       id="path40"
       inkscape:connector-curvature="0" />
    <path
       d="m -138.48378,-75.346254 c -0.7281,-1.773327 0.1171,-3.802876 1.88887,-4.532499 1.77561,-0.728892 3.80505,0.118295 4.53316,1.891615 0.73132,1.774341 -0.1171,3.802882 -1.88948,4.532804 -1.77498,0.728591 -3.80443,-0.118595 -4.53255,-1.89192"
       style="fill:#ffffff;fill-opacity:1;fill-rule:nonzero;stroke:none;stroke-width:0.04809525"
       id="path42"
       inkscape:connector-curvature="0" />
    <path
       d="m -81.469896,44.804092 c -0.727535,-1.775149 0.116802,-3.801967 1.892976,-4.532707 1.771492,-0.728693 3.801516,0.11666 4.529047,1.891815 0.731898,1.772508 -0.116659,3.801513 -1.889629,4.533267 -1.77469,0.727669 -3.803691,-0.12089 -4.532394,-1.892375"
       style="fill:#e3e324;fill-opacity:1;fill-rule:nonzero;stroke:none;stroke-width:0.04809525"
       id="path44"
       inkscape:connector-curvature="0" />
    <path
       d="m -116.10938,-30.828794 c -3.28463,0.06082 -5.99951,-2.554193 -6.05806,-5.839612 -0.0618,-3.286444 2.5522,-5.999633 5.83974,-6.060051 3.28477,-0.06128 5.99966,2.553745 6.05806,5.839613 0.0618,3.286441 -2.55222,5.999644 -5.83974,6.06005"
       style="fill:#ee1f4f;fill-opacity:1;fill-rule:nonzero;stroke:none;stroke-width:0.04809525"
       id="path46"
       inkscape:connector-curvature="0" />
    <path
       d="m -130.53193,36.322105 c -3.28842,0.06163 -5.99876,-2.554966 -6.06096,-5.84003 -0.058,-3.287257 2.55496,-5.998753 5.84004,-6.060963 3.28841,-0.06163 5.99875,2.554964 6.06095,5.840027 0.0618,3.287972 -2.55497,5.998776 -5.84003,6.060966"
       style="fill:#f07a25;fill-opacity:1;fill-rule:nonzero;stroke:none;stroke-width:0.04809525"
       id="path48"
       inkscape:connector-curvature="0" />
    <path
       d="m -152.47701,145.30371 3.98966,-5.65559 -2.90538,-6.2886 -6.8933,-0.62739 -3.99113,5.66019 2.90684,6.28401 6.89331,0.62738"
       style="fill:#e3e324;fill-opacity:1;fill-rule:nonzero;stroke:none;stroke-width:0.04809525"
       id="path50"
       inkscape:connector-curvature="0" />
    <path
       d="m -70.506498,-30.910973 6.778905,-1.422154 2.154881,-6.580192 -4.619851,-5.156711 -6.778898,1.422161 -2.154881,6.580193 4.619858,5.156702"
       style="fill:#ffffff;fill-opacity:1;fill-rule:nonzero;stroke:none;stroke-width:0.04809525"
       id="path54"
       inkscape:connector-curvature="0" />
    <path
       d="m -200.23025,15.355514 0.47572,-7.3876674 -5.81438,-4.5791515 7.17187,-1.8311454 2.55994,-6.946005 3.95581,6.25622876 7.39766,0.28710974 -4.72847,5.6967593 2.01423,7.1246195 -6.87845,-2.735773 -6.15393,4.115025"
       style="fill:#e3e324;fill-opacity:1;fill-rule:nonzero;stroke:none;stroke-width:0.04809525"
       id="path30-2"
       inkscape:connector-curvature="0" />
  </g>
</svg>
