<?xml version="1.0" encoding="UTF-8" standalone="no"?>
<!-- Created with Inkscape (http://www.inkscape.org/) -->

<svg
   xmlns:dc="http://purl.org/dc/elements/1.1/"
   xmlns:cc="http://creativecommons.org/ns#"
   xmlns:rdf="http://www.w3.org/1999/02/22-rdf-syntax-ns#"
   xmlns:svg="http://www.w3.org/2000/svg"
   xmlns="http://www.w3.org/2000/svg"
   xmlns:sodipodi="http://sodipodi.sourceforge.net/DTD/sodipodi-0.dtd"
   xmlns:inkscape="http://www.inkscape.org/namespaces/inkscape"
   width="369.60138mm"
   height="356.30606mm"
   viewBox="0 0 369.60138 356.30606"
   version="1.1"
   id="svg4668"
   inkscape:version="0.92.1 r15371"
   sodipodi:docname="happy.svg">
  <defs
     id="defs4662" />
  <sodipodi:namedview
     id="base"
     pagecolor="#ffffff"
     bordercolor="#666666"
     borderopacity="1.0"
     inkscape:pageopacity="0.0"
     inkscape:pageshadow="2"
     inkscape:zoom="0.175"
     inkscape:cx="-995.89853"
     inkscape:cy="966.33402"
     inkscape:document-units="mm"
     inkscape:current-layer="layer1"
     showgrid="false"
     fit-margin-top="0"
     fit-margin-left="0"
     fit-margin-right="0"
     fit-margin-bottom="0"
     inkscape:window-width="1366"
     inkscape:window-height="719"
     inkscape:window-x="0"
     inkscape:window-y="0"
     inkscape:window-maximized="1" />
  <metadata
     id="metadata4665">
    <rdf:RDF>
      <cc:Work
         rdf:about="">
        <dc:format>image/svg+xml</dc:format>
        <dc:type
           rdf:resource="http://purl.org/dc/dcmitype/StillImage" />
        <dc:title></dc:title>
      </cc:Work>
    </rdf:RDF>
  </metadata>
  <g
     inkscape:label="Layer 1"
     inkscape:groupmode="layer"
     id="layer1"
     transform="translate(-139.05577,-142.74452)">
    <path
       d="m 164.70977,313.74506 h 19.84651 l -12.5846,39.69445 h -19.84651 z m 9.4387,-29.76711 h 9.92349 l -6.2923,19.84698 h -9.92349 z m -5.3227,79.38554 h 9.92301 l 3.14639,-9.92398 12.5846,-39.69445 3.14639,-9.92013 h -9.92349 l 6.29278,-19.84698 3.14591,-9.92398 h -29.76999 l -28.3156,89.30952 h 29.77"
       style="fill:#ffffff;fill-opacity:1;fill-rule:nonzero;stroke:none;stroke-width:0.04809525"
       id="path90"
       inkscape:connector-curvature="0" />
    <path
       d="m 217.47267,303.82493 h -9.92349 l -18.87691,59.53856 h 9.92301 l 18.87739,-59.53856"
       style="fill:#ffffff;fill-opacity:1;fill-rule:nonzero;stroke:none;stroke-width:0.04809525"
       id="path92"
       inkscape:connector-curvature="0" />
    <path
       d="m 223.76497,283.97795 h -9.92349 l -3.14639,9.92349 h 9.92349 l 3.14639,-9.92349"
       style="fill:#ffffff;fill-opacity:1;fill-rule:nonzero;stroke:none;stroke-width:0.04809525"
       id="path94"
       inkscape:connector-curvature="0" />
    <path
       d="m 208.51829,363.36349 h 9.92398 l 15.73051,-49.61843 h 19.84651 l 3.14639,-9.92013 h -29.76952 l -18.87787,59.53856"
       style="fill:#ffffff;fill-opacity:1;fill-rule:nonzero;stroke:none;stroke-width:0.04809525"
       id="path96"
       inkscape:connector-curvature="0" />
    <path
       d="m 290.08159,293.90144 3.14591,-9.92349 h -9.92301 l 3.14639,-9.92398 h -9.92349 l -3.1464,9.92398 h -39.69301 l -3.14591,9.92349 h 39.69302 l -22.0233,69.46205 h 19.8465 l 3.1464,-9.92398 h -9.92302 l 18.87643,-59.53807 h 9.92349"
       style="fill:#ffffff;fill-opacity:1;fill-rule:nonzero;stroke:none;stroke-width:0.04809525"
       id="path98"
       inkscape:connector-curvature="0" />
    <path
       d="m 307.74986,363.36349 18.87691,-59.53856 h -19.84362 l 9.43677,-29.77096 h -9.9235 l -28.31511,89.30952 h 9.92349 l 15.73148,-49.61843 h 9.92397 l -15.73244,49.61843 h 9.92205"
       style="fill:#ffffff;fill-opacity:1;fill-rule:nonzero;stroke:none;stroke-width:0.04809525"
       id="path100"
       inkscape:connector-curvature="0" />
    <path
       d="m 343.32736,313.74506 h 9.92398 l -12.58365,39.69445 h -9.92397 z m -25.654,49.61843 h 29.77096 l 28.31416,-89.30952 h -9.92013 l -9.44014,29.77096 h -19.84747 l -18.87738,59.53856"
       style="fill:#ffffff;fill-opacity:1;fill-rule:nonzero;stroke:none;stroke-width:0.04809525"
       id="path102"
       inkscape:connector-curvature="0" />
    <path
       d="m 435.78616,303.82493 -15.73292,49.61458 h -9.92348 l 15.73051,-49.61458 h -9.92399 l -18.8769,59.53856 h 19.84699 l -6.28989,19.84746 -29.35771,0.31509 -3.24712,9.60841 h 39.38192 l 3.14302,-9.9235 25.17161,-79.38602 h -9.92204"
       style="fill:#ffffff;fill-opacity:1;fill-rule:nonzero;stroke:none;stroke-width:0.04809525"
       id="path104"
       inkscape:connector-curvature="0"
       sodipodi:nodetypes="cccccccccccccc" />
    <path
       d="m 370.43866,353.43951 12.58364,-39.69445 h 9.9235 l -12.58701,39.69445 z m 13.55372,19.84747 22.02427,-69.46205 H 376.2452 l -18.87691,59.53856 h 19.84699 l -3.14639,9.92349 h 9.92349"
       style="fill:#ffffff;fill-opacity:1;fill-rule:nonzero;stroke:none;stroke-width:0.04809525"
       id="path106"
       inkscape:connector-curvature="0" />
    <path
       d="m 292.98991,222.13034 12.58316,-39.6935 h 9.92398 l -12.58413,39.6935 z m 13.55372,19.84651 22.02378,-69.4635 h -29.77 l -18.87738,59.54048 h 19.84698 l -3.14639,9.92302 h 9.92301"
       style="fill:#ffffff;fill-opacity:1;fill-rule:nonzero;stroke:none;stroke-width:0.04809525"
       id="path108"
       inkscape:connector-curvature="0" />
    <path
       d="m 342.60786,222.13034 h -9.9235 l 12.58365,-39.6935 h 9.92349 z m 25.65401,-49.61699 H 338.4909 l -28.31752,89.30952 h 9.9235 l 9.44061,-29.76904 h 19.84747 l 18.87691,-59.54048"
       style="fill:#ffffff;fill-opacity:1;fill-rule:nonzero;stroke:none;stroke-width:0.04809525"
       id="path110"
       inkscape:connector-curvature="0" />
    <path
       d="m 384.96246,182.43684 h 9.92013 l -12.58364,39.6935 h -9.92349 z m -15.73388,49.61699 h 19.84747 l 18.8769,-59.54048 H 378.182 l -28.31416,89.30952 h 9.92397 l 9.43677,-29.76904"
       style="fill:#ffffff;fill-opacity:1;fill-rule:nonzero;stroke:none;stroke-width:0.04809525"
       id="path112"
       inkscape:connector-curvature="0" />
    <path
       d="m 447.64646,172.51335 h -9.92206 l -15.73099,49.61699 h -9.92349 l 15.73051,-49.61699 h -9.92349 l -18.8774,59.54048 h 19.84747 l -6.29375,19.84603 h -39.69108 l -3.14687,9.92301 h 49.61507 l 28.31608,-89.30952"
       style="fill:#ffffff;fill-opacity:1;fill-rule:nonzero;stroke:none;stroke-width:0.04809525"
       id="path114"
       inkscape:connector-curvature="0" />
    <path
       d="m 240.22701,232.05383 0.93065,-2.93381 11.65444,-36.75968 h 19.8465 l -12.5846,39.69349 h 9.92301 l 25.16969,-79.38698 h 138.9265 v -0.007 h 19.84891 l 3.14063,-9.91532 H 288.3896 l -12.58509,39.69251 h -19.84602 l 12.5846,-39.69252 h -9.92301 l -27.38591,86.3757 -0.93017,2.93381 -9.43821,29.76904 h 9.92301 l 9.43821,-29.76904"
       style="fill:#ffffff;fill-opacity:1;fill-rule:nonzero;stroke:none;stroke-width:0.04809525"
       id="path116"
       inkscape:connector-curvature="0" />
    <path
       d="m 473.07926,479.20311 12.58356,-39.69445 h 9.92349 l -12.58702,39.69445 z m 13.55363,19.84746 22.02426,-69.46204 H 478.8857 l -18.87622,59.53855 h 19.84632 l -3.1464,9.92349 h 9.92349"
       style="fill:#ffffff;fill-opacity:1;fill-rule:nonzero;stroke:none;stroke-width:0.04809525"
       id="path106-3"
       inkscape:connector-curvature="0" />
    <path
       d="m 472.75025,418.80276 3.14582,-9.92349 h -9.92259 l 3.14624,-9.92397 h -9.92306 l -3.14624,9.92397 h -39.69198 l -3.14592,9.92349 h 39.69213 l -22.02241,69.46204 h 19.84571 l 3.14627,-9.92396 h -9.92254 l 18.87556,-59.53808 h 9.92301"
       style="fill:#ffffff;fill-opacity:1;fill-rule:nonzero;stroke:none;stroke-width:0.04809525"
       id="path98-6"
       inkscape:connector-curvature="0" />
    <path
       d="m 428.674,428.27146 -15.73291,49.61458 h -9.9235 l 15.73052,-49.61458 h -9.92397 l -18.87691,59.53855 c 29.32261,0.2881 0,0 29.32261,0.2881 6.44067,-20.31637 12.88444,-39.51062 19.32599,-59.82665 H 428.674"
       style="fill:#ffffff;fill-opacity:1;fill-rule:nonzero;stroke:none;stroke-width:0.04809525"
       id="path104-7"
       inkscape:connector-curvature="0"
       sodipodi:nodetypes="ccccccccc" />
    <path
       d="m 347.70468,427.79201 -15.73292,49.61458 h -9.92349 l 15.73051,-49.61458 h -9.92397 l -18.87691,59.53855 c 29.32262,0.28808 0,0 29.32262,0.28808 6.44068,-20.31635 12.88443,-39.51063 19.32621,-59.82663 h -9.92205"
       style="fill:#ffffff;fill-opacity:1;fill-rule:nonzero;stroke:none;stroke-width:0.04809525"
       id="path104-7-5"
       inkscape:connector-curvature="0"
       sodipodi:nodetypes="ccccccccc" />
    <path
       style="fill:#ffffff;fill-opacity:1;fill-rule:nonzero;stroke:none;stroke-width:0.04809525"
       d="m 289.06213,398.11201 c -13.58003,45.94364 -7.08558,23.75293 -14.37278,46.73668 l -0.93016,2.93367 -9.48391,30.14276 c -3.31761,10.46396 0,0 -3.31761,10.30841 0,0 0.0103,0.0552 0.0243,0.0785 l -0.0243,0.077 h 0.15554 9.76738 l 23.6101,-0.68406 4.60382,-12.19496 -21.05758,-0.15555 c 7.56429,-24.12307 13.54311,-41.78805 21.41244,-66.60859 l 61.45267,-0.15481 6.19204,-10.05217 c -10.06605,0.0222 -67.96608,-0.37519 -78.03195,-0.42693 z"
       id="path116-3"
       inkscape:connector-curvature="0"
       sodipodi:nodetypes="cccccccccccccccc" />
    <path
       style="fill:#ffffff;fill-opacity:1;fill-rule:nonzero;stroke:none;stroke-width:0.04380567"
       d="m 370.07864,426.26936 -21.23,60.92113 29.11298,0.14166 3.74503,-10.5663 -18.81062,0.0538 13.74523,-41.46302 21.38688,-0.003 3.65501,-9.0356 h -22.17641 z"
       id="path116-3-5"
       inkscape:connector-curvature="0"
       sodipodi:nodetypes="cccccccccc" />
    <path
       d="m 349.58124,415.46105 h -6.80235 l -2.15678,6.80233 h 6.80234 l 2.15679,-6.80233"
       style="fill:#ffffff;fill-opacity:1;fill-rule:nonzero;stroke:none;stroke-width:0.03296827"
       id="path94-6"
       inkscape:connector-curvature="0" />
  </g>
</svg>
