<?xml version="1.0" encoding="UTF-8" standalone="no"?>
<!-- Created with Inkscape (http://www.inkscape.org/) -->

<svg
   xmlns:dc="http://purl.org/dc/elements/1.1/"
   xmlns:cc="http://creativecommons.org/ns#"
   xmlns:rdf="http://www.w3.org/1999/02/22-rdf-syntax-ns#"
   xmlns:svg="http://www.w3.org/2000/svg"
   xmlns="http://www.w3.org/2000/svg"
   xmlns:sodipodi="http://sodipodi.sourceforge.net/DTD/sodipodi-0.dtd"
   xmlns:inkscape="http://www.inkscape.org/namespaces/inkscape"
   width="500mm"
   height="500mm"
   viewBox="0 0 499.99999 499.99999"
   version="1.1"
   id="svg6611"
   inkscape:version="0.92.1 r15371"
   sodipodi:docname="chat.svg">
  <defs
     id="defs6605" />
  <sodipodi:namedview
     id="base"
     pagecolor="#ffffff"
     bordercolor="#666666"
     borderopacity="1.0"
     inkscape:pageopacity="0.0"
     inkscape:pageshadow="2"
     inkscape:zoom="0.175"
     inkscape:cx="214.48197"
     inkscape:cy="1396.2785"
     inkscape:document-units="mm"
     inkscape:current-layer="layer1"
     showgrid="false"
     fit-margin-top="0"
     fit-margin-left="0"
     fit-margin-right="0"
     fit-margin-bottom="0"
     inkscape:pagecheckerboard="true"
     inkscape:window-width="1366"
     inkscape:window-height="719"
     inkscape:window-x="0"
     inkscape:window-y="0"
     inkscape:window-maximized="1" />
  <metadata
     id="metadata6608">
    <rdf:RDF>
      <cc:Work
         rdf:about="">
        <dc:format>image/svg+xml</dc:format>
        <dc:type
           rdf:resource="http://purl.org/dc/dcmitype/StillImage" />
        <dc:title></dc:title>
      </cc:Work>
    </rdf:RDF>
  </metadata>
  <g
     inkscape:label="Layer 1"
     inkscape:groupmode="layer"
     id="layer1"
     transform="translate(34.484483,355.27099)">
    <g
       id="g6341"
       transform="matrix(25.737627,0,0,-25.737627,18.851461,-322.12635)">
      <path
         d="m 0,0 h 11.996 c 0.491,0 0.99,-0.373 0.99,-0.85 v -0.345 c 0,-0.331 0.268,-0.598 0.598,-0.598 0.33,0 0.597,0.267 0.597,0.598 v 0.345 c 0,1.128 -1.043,2.045 -2.185,2.045 H 0 c -1.142,0 -1.958,-0.917 -1.958,-2.045 v -7.811 c 0,-0.575 0.174,-1.083 0.611,-1.47 0.114,-0.101 0.199,-0.15 0.339,-0.15 0.166,0 0.358,0.068 0.477,0.201 0.219,0.247 0.224,0.625 -0.023,0.844 -0.179,0.158 -0.208,0.346 -0.208,0.575 V -0.85 C -0.762,-0.373 -0.491,0 0,0"
         style="fill:#ffffff;fill-opacity:1;fill-rule:nonzero;stroke:none"
         id="path6343"
         inkscape:connector-curvature="0" />
    </g>
    <g
       id="g6345"
       transform="matrix(25.737627,0,0,-25.737627,373.22795,-137.51072)">
      <path
         d="m 0,0 h -1.196 c -0.165,0 -0.298,0.134 -0.298,0.299 0,0.165 0.133,0.299 0.298,0.299 H 0 C 0.165,0.598 0.299,0.464 0.299,0.299 0.299,0.134 0.165,0 0,0 m 0,-1.494 h -2.989 c -0.165,0 -0.299,0.133 -0.299,0.299 0,0.165 0.134,0.298 0.299,0.298 H 0 c 0.165,0 0.299,-0.133 0.299,-0.298 0,-0.166 -0.134,-0.299 -0.299,-0.299 m 0,-1.794 h -0.598 c -0.165,0 -0.299,0.134 -0.299,0.299 0,0.165 0.134,0.299 0.299,0.299 H 0 c 0.165,0 0.299,-0.134 0.299,-0.299 0,-0.165 -0.134,-0.299 -0.299,-0.299 m -1.793,0 h -2.989 c -0.165,0 -0.299,0.134 -0.299,0.299 0,0.165 0.134,0.299 0.299,0.299 h 2.989 c 0.165,0 0.299,-0.134 0.299,-0.299 0,-0.165 -0.134,-0.299 -0.299,-0.299 m -2.69,-1.494 h -2.092 c -0.165,0 -0.299,0.134 -0.299,0.299 0,0.165 0.134,0.299 0.299,0.299 h 2.092 c 0.165,0 0.299,-0.134 0.299,-0.299 0,-0.165 -0.134,-0.299 -0.299,-0.299 m -3.288,0 h -1.195 c -0.166,0 -0.299,0.134 -0.299,0.299 0,0.165 0.133,0.299 0.299,0.299 h 1.195 c 0.165,0 0.299,-0.134 0.299,-0.299 0,-0.165 -0.134,-0.299 -0.299,-0.299 m -1.195,2.092 h 2.988 c 0.166,0 0.299,-0.134 0.299,-0.299 0,-0.165 -0.133,-0.299 -0.299,-0.299 h -2.988 c -0.166,0 -0.299,0.134 -0.299,0.299 0,0.165 0.133,0.299 0.299,0.299 m 0,1.793 h 1.195 c 0.165,0 0.299,-0.133 0.299,-0.298 0,-0.166 -0.134,-0.299 -0.299,-0.299 h -1.195 c -0.166,0 -0.299,0.133 -0.299,0.299 0,0.165 0.133,0.298 0.299,0.298 m 0,1.495 h 2.391 c 0.165,0 0.299,-0.134 0.299,-0.299 C -6.276,0.134 -6.41,0 -6.575,0 h -2.391 c -0.166,0 -0.299,0.134 -0.299,0.299 0,0.165 0.133,0.299 0.299,0.299 m 5.081,-1.793 c 0,-0.166 -0.134,-0.299 -0.299,-0.299 h -2.391 c -0.165,0 -0.299,0.133 -0.299,0.299 0,0.165 0.134,0.298 0.299,0.298 h 2.391 c 0.165,0 0.299,-0.133 0.299,-0.298 M -5.38,0.598 h 2.989 c 0.165,0 0.299,-0.134 0.299,-0.299 C -2.092,0.134 -2.226,0 -2.391,0 H -5.38 c -0.165,0 -0.299,0.134 -0.299,0.299 0,0.165 0.134,0.299 0.299,0.299 m 6.895,3.287 h -11.996 c -1.143,0 -1.958,-0.917 -1.958,-2.045 v -7.811 c 0,-1.157 0.815,-2.099 1.958,-2.099 h 1.499 l -0.059,-2.225 c -0.006,-0.227 0.117,-0.438 0.318,-0.544 0.088,-0.047 0.184,-0.07 0.28,-0.07 0.122,0 0.245,0.038 0.348,0.112 l 3.804,2.727 h 5.806 c 1.142,0 2.185,0.942 2.185,2.099 V 1.84 c 0,1.128 -1.043,2.045 -2.185,2.045"
         style="fill:#ffffff;fill-opacity:1;fill-rule:nonzero;stroke:none"
         id="path6347"
         inkscape:connector-curvature="0" />
    </g>
  </g>
</svg>
