<?xml version="1.0" encoding="UTF-8" standalone="no"?>
<!-- Created with Inkscape (http://www.inkscape.org/) -->

<svg
   xmlns:dc="http://purl.org/dc/elements/1.1/"
   xmlns:cc="http://creativecommons.org/ns#"
   xmlns:rdf="http://www.w3.org/1999/02/22-rdf-syntax-ns#"
   xmlns:svg="http://www.w3.org/2000/svg"
   xmlns="http://www.w3.org/2000/svg"
   xmlns:sodipodi="http://sodipodi.sourceforge.net/DTD/sodipodi-0.dtd"
   xmlns:inkscape="http://www.inkscape.org/namespaces/inkscape"
   width="500mm"
   height="500mm"
   viewBox="0 0 499.99999 499.99999"
   version="1.1"
   id="svg6611"
   inkscape:version="0.92.1 r15371"
   sodipodi:docname="download.svg">
  <defs
     id="defs6605" />
  <sodipodi:namedview
     id="base"
     pagecolor="#ffffff"
     bordercolor="#666666"
     borderopacity="1.0"
     inkscape:pageopacity="0.0"
     inkscape:pageshadow="2"
     inkscape:zoom="0.175"
     inkscape:cx="214.48197"
     inkscape:cy="1396.2785"
     inkscape:document-units="mm"
     inkscape:current-layer="layer1"
     showgrid="false"
     fit-margin-top="0"
     fit-margin-left="0"
     fit-margin-right="0"
     fit-margin-bottom="0"
     inkscape:pagecheckerboard="true"
     inkscape:window-width="1366"
     inkscape:window-height="719"
     inkscape:window-x="0"
     inkscape:window-y="0"
     inkscape:window-maximized="1" />
  <metadata
     id="metadata6608">
    <rdf:RDF>
      <cc:Work
         rdf:about="">
        <dc:format>image/svg+xml</dc:format>
        <dc:type
           rdf:resource="http://purl.org/dc/dcmitype/StillImage" />
        <dc:title></dc:title>
      </cc:Work>
    </rdf:RDF>
  </metadata>
  <g
     inkscape:label="Layer 1"
     inkscape:groupmode="layer"
     id="layer1"
     transform="translate(34.484483,355.27099)">
    <g
       id="g2112"
       transform="matrix(25.751957,0,0,-25.751957,301.31865,-58.60772)">
      <path
         d="m 0,0 -2.26,-3.09 c -0.261,-0.332 -0.61,-0.517 -0.989,-0.517 -0.402,0 -0.793,0.205 -1.073,0.562 l -2.269,3.009 c -0.293,0.372 -0.366,0.856 -0.189,1.221 0.162,0.333 0.497,0.548 0.918,0.548 h 0.889 v 2.598 c 0,0.991 0.742,1.828 1.654,1.828 0.755,0 1.312,-0.354 1.553,-0.971 C -1.752,5.153 -1.77,5.119 -1.77,5.084 L -1.776,5.059 V 1.733 h 1.049 c 0.426,0 0.762,-0.212 0.922,-0.542 C 0.367,0.837 0.293,0.373 0,0 m -3.294,11.555 c -5.353,0 -9.708,-4.355 -9.708,-9.708 0,-5.353 4.355,-9.708 9.708,-9.708 5.353,0 9.708,4.355 9.708,9.708 0,5.353 -4.355,9.708 -9.708,9.708"
         style="fill:#ffffff;fill-opacity:1;fill-rule:nonzero;stroke:none"
         id="path2114"
         inkscape:connector-curvature="0" />
    </g>
  </g>
</svg>
