<?xml version="1.0" encoding="UTF-8" standalone="no"?>
<!-- Created with Inkscape (http://www.inkscape.org/) -->

<svg
   xmlns:dc="http://purl.org/dc/elements/1.1/"
   xmlns:cc="http://creativecommons.org/ns#"
   xmlns:rdf="http://www.w3.org/1999/02/22-rdf-syntax-ns#"
   xmlns:svg="http://www.w3.org/2000/svg"
   xmlns="http://www.w3.org/2000/svg"
   xmlns:sodipodi="http://sodipodi.sourceforge.net/DTD/sodipodi-0.dtd"
   xmlns:inkscape="http://www.inkscape.org/namespaces/inkscape"
   width="500mm"
   height="500mm"
   viewBox="0 0 499.99999 499.99999"
   version="1.1"
   id="svg6611"
   inkscape:version="0.92.1 r15371"
   sodipodi:docname="edit.svg">
  <defs
     id="defs6605" />
  <sodipodi:namedview
     id="base"
     pagecolor="#ffffff"
     bordercolor="#666666"
     borderopacity="1.0"
     inkscape:pageopacity="0.0"
     inkscape:pageshadow="2"
     inkscape:zoom="0.175"
     inkscape:cx="214.48197"
     inkscape:cy="1396.2785"
     inkscape:document-units="mm"
     inkscape:current-layer="layer1"
     showgrid="false"
     fit-margin-top="0"
     fit-margin-left="0"
     fit-margin-right="0"
     fit-margin-bottom="0"
     inkscape:pagecheckerboard="true"
     inkscape:window-width="1366"
     inkscape:window-height="719"
     inkscape:window-x="0"
     inkscape:window-y="0"
     inkscape:window-maximized="1" />
  <metadata
     id="metadata6608">
    <rdf:RDF>
      <cc:Work
         rdf:about="">
        <dc:format>image/svg+xml</dc:format>
        <dc:type
           rdf:resource="http://purl.org/dc/dcmitype/StillImage" />
        <dc:title></dc:title>
      </cc:Work>
    </rdf:RDF>
  </metadata>
  <g
     inkscape:label="Layer 1"
     inkscape:groupmode="layer"
     id="layer1"
     transform="translate(34.484483,355.27099)">
    <g
       id="g1962"
       transform="matrix(26.140201,0,0,-26.140201,424.65919,-244.46349)">
      <path
         d="m 0,0 -0.469,-0.469 -2.616,2.617 0.469,0.468 c 0.285,0.286 0.672,0.443 1.089,0.443 0.46,0 0.899,-0.186 1.235,-0.522 l 0.13,-0.13 C 0.169,2.077 0.374,1.619 0.402,1.152 0.429,0.695 0.286,0.286 0,0 m -13.786,-12.795 -1.651,1.651 c 0.296,0.842 0.595,1.535 0.829,1.769 l 0.221,0.221 2.616,-2.616 -0.221,-0.222 c -0.233,-0.232 -0.937,-0.521 -1.794,-0.803 m 14.47,16.047 -0.13,0.13 c -0.562,0.563 -1.301,0.872 -2.081,0.872 -0.736,0 -1.423,-0.281 -1.934,-0.792 L -15.453,-8.53 c -0.926,-0.925 -1.876,-4.685 -2.057,-5.43 -0.05,-0.202 0.01,-0.416 0.158,-0.564 l 0.13,-0.13 c 0.113,-0.113 0.266,-0.175 0.422,-0.175 0.043,0 0.086,0.005 0.129,0.014 0.759,0.167 4.594,1.048 5.524,1.978 L 0.845,-0.845 c 0.531,0.53 0.797,1.265 0.75,2.067 -0.044,0.756 -0.376,1.496 -0.911,2.03"
         style="fill:#ffffff;fill-opacity:1;fill-rule:nonzero;stroke:none"
         id="path1964"
         inkscape:connector-curvature="0" />
    </g>
  </g>
</svg>
