<?xml version="1.0" encoding="UTF-8" standalone="no"?>
<!-- Created with Inkscape (http://www.inkscape.org/) -->

<svg
   xmlns:dc="http://purl.org/dc/elements/1.1/"
   xmlns:cc="http://creativecommons.org/ns#"
   xmlns:rdf="http://www.w3.org/1999/02/22-rdf-syntax-ns#"
   xmlns:svg="http://www.w3.org/2000/svg"
   xmlns="http://www.w3.org/2000/svg"
   xmlns:sodipodi="http://sodipodi.sourceforge.net/DTD/sodipodi-0.dtd"
   xmlns:inkscape="http://www.inkscape.org/namespaces/inkscape"
   width="500mm"
   height="500mm"
   viewBox="0 0 499.99999 499.99999"
   version="1.1"
   id="svg6611"
   inkscape:version="0.92.1 r15371"
   sodipodi:docname="email.svg">
  <defs
     id="defs6605" />
  <sodipodi:namedview
     id="base"
     pagecolor="#ffffff"
     bordercolor="#666666"
     borderopacity="1.0"
     inkscape:pageopacity="0.0"
     inkscape:pageshadow="2"
     inkscape:zoom="0.175"
     inkscape:cx="214.48197"
     inkscape:cy="1396.2785"
     inkscape:document-units="mm"
     inkscape:current-layer="layer1"
     showgrid="false"
     fit-margin-top="0"
     fit-margin-left="0"
     fit-margin-right="0"
     fit-margin-bottom="0"
     inkscape:pagecheckerboard="true"
     inkscape:window-width="1366"
     inkscape:window-height="719"
     inkscape:window-x="0"
     inkscape:window-y="0"
     inkscape:window-maximized="1" />
  <metadata
     id="metadata6608">
    <rdf:RDF>
      <cc:Work
         rdf:about="">
        <dc:format>image/svg+xml</dc:format>
        <dc:type
           rdf:resource="http://purl.org/dc/dcmitype/StillImage" />
        <dc:title></dc:title>
      </cc:Work>
    </rdf:RDF>
  </metadata>
  <g
     inkscape:label="Layer 1"
     inkscape:groupmode="layer"
     id="layer1"
     transform="translate(34.484483,355.27099)">
    <g
       id="g1912"
       transform="matrix(25.737376,0,0,-25.737376,340.79036,-166.17788)">
      <path
         d="m 0,0 -2.781,-2.214 c 0.01,-0.009 0.025,-0.007 0.033,-0.018 l 1.799,-2.15 c 0.105,-0.127 0.088,-0.316 -0.038,-0.422 -0.056,-0.046 -0.124,-0.069 -0.192,-0.069 -0.085,0 -0.17,0.036 -0.229,0.107 l -1.798,2.151 c -0.013,0.014 -0.007,0.034 -0.016,0.049 l -1.673,-1.332 c -0.055,-0.043 -0.12,-0.065 -0.186,-0.065 -0.067,0 -0.134,0.022 -0.189,0.067 l -1.667,1.357 -1.491,-1.679 c -0.059,-0.067 -0.141,-0.101 -0.224,-0.101 -0.07,0 -0.141,0.025 -0.198,0.076 -0.124,0.109 -0.135,0.298 -0.025,0.422 l 1.474,1.66 -2.88,2.345 c -0.127,0.104 -0.147,0.292 -0.042,0.42 0.103,0.127 0.292,0.148 0.42,0.043 l 4.824,-3.927 4.706,3.748 C -0.243,0.571 -0.055,0.549 0.047,0.42 0.15,0.291 0.129,0.103 0,0 m 2.812,5.431 h -15.284 c -1.144,0 -2.071,-0.927 -2.071,-2.072 V -7.74 c 0,-1.144 0.927,-2.072 2.071,-2.072 H 2.812 c 1.144,0 2.072,0.928 2.072,2.072 V 3.359 c 0,1.145 -0.928,2.072 -2.072,2.072"
         style="fill:#ffffff;fill-opacity:1;fill-rule:nonzero;stroke:none"
         id="path1914"
         inkscape:connector-curvature="0" />
    </g>
  </g>
</svg>
