<?xml version="1.0" encoding="UTF-8" standalone="no"?>
<!-- Created with Inkscape (http://www.inkscape.org/) -->

<svg
   xmlns:dc="http://purl.org/dc/elements/1.1/"
   xmlns:cc="http://creativecommons.org/ns#"
   xmlns:rdf="http://www.w3.org/1999/02/22-rdf-syntax-ns#"
   xmlns:svg="http://www.w3.org/2000/svg"
   xmlns="http://www.w3.org/2000/svg"
   xmlns:sodipodi="http://sodipodi.sourceforge.net/DTD/sodipodi-0.dtd"
   xmlns:inkscape="http://www.inkscape.org/namespaces/inkscape"
   width="500mm"
   height="500mm"
   viewBox="0 0 499.99999 499.99999"
   version="1.1"
   id="svg6611"
   inkscape:version="0.92.1 r15371"
   sodipodi:docname="favorite.svg">
  <defs
     id="defs6605" />
  <sodipodi:namedview
     id="base"
     pagecolor="#ffffff"
     bordercolor="#666666"
     borderopacity="1.0"
     inkscape:pageopacity="0.0"
     inkscape:pageshadow="2"
     inkscape:zoom="0.175"
     inkscape:cx="214.48197"
     inkscape:cy="1396.2785"
     inkscape:document-units="mm"
     inkscape:current-layer="layer1"
     showgrid="false"
     fit-margin-top="0"
     fit-margin-left="0"
     fit-margin-right="0"
     fit-margin-bottom="0"
     inkscape:pagecheckerboard="true"
     inkscape:window-width="1366"
     inkscape:window-height="719"
     inkscape:window-x="0"
     inkscape:window-y="0"
     inkscape:window-maximized="1" />
  <metadata
     id="metadata6608">
    <rdf:RDF>
      <cc:Work
         rdf:about="">
        <dc:format>image/svg+xml</dc:format>
        <dc:type
           rdf:resource="http://purl.org/dc/dcmitype/StillImage" />
        <dc:title></dc:title>
      </cc:Work>
    </rdf:RDF>
  </metadata>
  <g
     inkscape:label="Layer 1"
     inkscape:groupmode="layer"
     id="layer1"
     transform="translate(34.484483,355.27099)">
    <g
       id="g2062"
       transform="matrix(26.690865,0,0,-26.690865,242.71456,157.32072)">
      <path
         d="m -0.95730082,1.2943393 v 0 c -0.65899988,0 -1.16499988,0.429 -1.48699988,0.752 -0.763,0.763 -6.018,7.089 -6.423,7.577 -0.952,0.9620027 -1.4759993,2.2330027 -1.4759993,3.5810027 0,1.358 0.5319993,2.637 1.4959993,3.601 l 0.136,0.136 c 0.965,0.965 2.248,1.497 3.613,1.497 1.364,0 2.647,-0.532 3.612,-1.497 0.022,-0.022 0.043,-0.046 0.061,-0.071 10e-4,0 0.173,-0.215 0.44899992,-0.215 0.28799983,0 0.41799983,0.171 0.43199983,0.19 0.024,0.041 0.044,0.063 0.077,0.096 0.965,0.965 2.24800025,1.497 3.61300025,1.497 1.365,0 2.648,-0.532 3.612,-1.497 l 0.136,-0.136 c 0.965,-0.964 1.496,-2.243 1.496,-3.601 0,-1.348 -0.523,-2.618 -1.475,-3.5800027 -0.404,-0.492 -5.506,-6.7 -6.38400025,-7.578 -0.323,-0.323 -0.828,-0.752 -1.48799987,-0.752"
         style="fill:#ffffff;fill-opacity:1;fill-rule:nonzero;stroke:none"
         id="path2064"
         inkscape:connector-curvature="0" />
    </g>
  </g>
</svg>
