<?xml version="1.0" encoding="UTF-8" standalone="no"?>
<!-- Created with Inkscape (http://www.inkscape.org/) -->

<svg
   xmlns:dc="http://purl.org/dc/elements/1.1/"
   xmlns:cc="http://creativecommons.org/ns#"
   xmlns:rdf="http://www.w3.org/1999/02/22-rdf-syntax-ns#"
   xmlns:svg="http://www.w3.org/2000/svg"
   xmlns="http://www.w3.org/2000/svg"
   xmlns:sodipodi="http://sodipodi.sourceforge.net/DTD/sodipodi-0.dtd"
   xmlns:inkscape="http://www.inkscape.org/namespaces/inkscape"
   width="500mm"
   height="500mm"
   viewBox="0 0 499.99999 499.99999"
   version="1.1"
   id="svg6611"
   inkscape:version="0.92.1 r15371"
   sodipodi:docname="music.svg">
  <defs
     id="defs6605" />
  <sodipodi:namedview
     id="base"
     pagecolor="#ffffff"
     bordercolor="#666666"
     borderopacity="1.0"
     inkscape:pageopacity="0.0"
     inkscape:pageshadow="2"
     inkscape:zoom="0.175"
     inkscape:cx="214.48197"
     inkscape:cy="1396.2785"
     inkscape:document-units="mm"
     inkscape:current-layer="layer1"
     showgrid="false"
     fit-margin-top="0"
     fit-margin-left="0"
     fit-margin-right="0"
     fit-margin-bottom="0"
     inkscape:pagecheckerboard="true"
     inkscape:window-width="1366"
     inkscape:window-height="719"
     inkscape:window-x="0"
     inkscape:window-y="0"
     inkscape:window-maximized="1" />
  <metadata
     id="metadata6608">
    <rdf:RDF>
      <cc:Work
         rdf:about="">
        <dc:format>image/svg+xml</dc:format>
        <dc:type
           rdf:resource="http://purl.org/dc/dcmitype/StillImage" />
        <dc:title></dc:title>
      </cc:Work>
    </rdf:RDF>
  </metadata>
  <g
     inkscape:label="Layer 1"
     inkscape:groupmode="layer"
     id="layer1"
     transform="translate(34.484483,355.27099)">
    <g
       id="g1808"
       transform="matrix(24.845388,0,0,-24.845388,463.78699,-68.203505)">
      <path
         d="m 0,0 c 0,0.004 0.002,0.007 0.002,0.011 l -0.05,10.701 c 0,0.033 -0.014,0.064 -0.019,0.097 0.019,0.081 0.025,0.166 0.009,0.252 -0.062,0.324 -0.373,0.536 -0.7,0.475 l -12.253,-2.34 c -0.291,-0.056 -0.48,-0.315 -0.475,-0.601 -0.002,-0.02 -0.011,-0.038 -0.011,-0.059 l 0.046,-10.246 c -0.722,0.133 -1.866,0.305 -2.935,0.305 -1.978,0 -3.587,-1.608 -3.587,-3.586 0,-1.978 1.609,-3.587 3.587,-3.587 1.169,0 2.122,0.397 2.831,1.18 1.572,1.735 1.324,4.764 1.302,4.998 0,0.003 10e-4,0.005 10e-4,0.007 l -0.037,8.118 11.059,2.113 0.033,-7.157 c -0.722,0.133 -1.866,0.305 -2.935,0.305 -1.978,0 -3.587,-1.608 -3.587,-3.586 0,-1.978 1.609,-3.587 3.587,-3.587 1.169,0 2.122,0.397 2.831,1.18 C 0.286,-3.255 0.018,-0.181 0,0"
         style="fill:#ffffff;fill-opacity:1;fill-rule:nonzero;stroke:none"
         id="path1810"
         inkscape:connector-curvature="0" />
    </g>
  </g>
</svg>
