<?xml version="1.0" encoding="UTF-8" standalone="no"?>
<!-- Created with Inkscape (http://www.inkscape.org/) -->

<svg
   xmlns:dc="http://purl.org/dc/elements/1.1/"
   xmlns:cc="http://creativecommons.org/ns#"
   xmlns:rdf="http://www.w3.org/1999/02/22-rdf-syntax-ns#"
   xmlns:svg="http://www.w3.org/2000/svg"
   xmlns="http://www.w3.org/2000/svg"
   xmlns:sodipodi="http://sodipodi.sourceforge.net/DTD/sodipodi-0.dtd"
   xmlns:inkscape="http://www.inkscape.org/namespaces/inkscape"
   width="264.58334mm"
   height="264.58334mm"
   viewBox="0 0 264.58334 264.58334"
   version="1.1"
   id="svg4534"
   sodipodi:docname="shared.svg"
   inkscape:version="0.92.1 r15371">
  <defs
     id="defs4528" />
  <sodipodi:namedview
     id="base"
     pagecolor="#ffffff"
     bordercolor="#666666"
     borderopacity="1.0"
     inkscape:pageopacity="0.0"
     inkscape:pageshadow="2"
     inkscape:zoom="0.31999344"
     inkscape:cx="28.428507"
     inkscape:cy="619.57753"
     inkscape:document-units="mm"
     inkscape:current-layer="layer1"
     showgrid="false"
     fit-margin-top="0"
     fit-margin-left="0"
     fit-margin-right="0"
     fit-margin-bottom="0"
     inkscape:window-width="1366"
     inkscape:window-height="715"
     inkscape:window-x="-8"
     inkscape:window-y="-8"
     inkscape:window-maximized="1" />
  <metadata
     id="metadata4531">
    <rdf:RDF>
      <cc:Work
         rdf:about="">
        <dc:format>image/svg+xml</dc:format>
        <dc:type
           rdf:resource="http://purl.org/dc/dcmitype/StillImage" />
        <dc:title></dc:title>
      </cc:Work>
    </rdf:RDF>
  </metadata>
  <g
     inkscape:label="Capa 1"
     inkscape:groupmode="layer"
     id="layer1"
     transform="translate(39.214658,104.39208)">
    <path
       style="opacity:1;fill:#000000;fill-opacity:1;stroke:none;stroke-width:5.0004344;stroke-linecap:round;stroke-linejoin:miter;stroke-miterlimit:4;stroke-dasharray:none;stroke-dashoffset:0;stroke-opacity:1;paint-order:stroke fill markers"
       d="M -2.1464844,-17.396484 V 982.60352 H 997.85352 V -17.396484 Z M 75.195312,50.238281 H 934.78906 V 911.73438 H 75.195312 Z M 668.36328,212.89648 a 90,90.000185 0 0 0 -8.99609,0.11133 90,90.000185 0 0 0 -84.3125,90.9043 l -195.62696,88.26367 a 90,90.000208 0 0 0 -66.77148,-23.85156 90,90.000208 0 0 0 -84.34766,92.5039 90,90.000208 0 0 0 89.70118,87.32032 l 11.72265,-0.73242 a 90,90.000208 0 0 0 42.94922,-17.6543 l 195.39258,112.35547 a 99.999999,100.00022 0 0 0 -0.59375,13.23437 99.999999,100.00022 0 0 0 99.66797,97.02344 l 13.02344,-0.8125 a 99.999999,100.00022 0 0 0 86.8125,-108.67773 99.999999,100.00022 0 0 0 -105.78516,-90.31446 99.999999,100.00022 0 0 0 -64.58203,29.28516 L 406.95898,472.79883 a 90,90.000208 0 0 0 1.20313,-12.28125 L 606.36523,371.0918 a 90,90.000185 0 0 0 58.35547,21.74218 l 11.72266,-0.73242 a 90,90.000185 0 0 0 78.13086,-97.81054 90,90.000185 0 0 0 -86.21094,-81.39454 z"
       transform="matrix(0.26458333,0,0,0.26458333,-38.646734,-99.789256)"
       id="rect5115"
       inkscape:connector-curvature="0" />
  </g>
</svg>
